<svg xmlns="http://www.w3.org/2000/svg" width="1200" height="600" viewBox="0 0 1200 600" role="img" aria-labelledby="title desc">
  <title id="title">Demo clinic map</title>
  <desc id="desc">Illustrative map placeholder for clinic location section.</desc>
  <rect width="1200" height="600" fill="#eef4fa" />
  <path d="M0 110h1200M0 260h1200M0 410h1200" stroke="#c8d7e6" stroke-width="14" />
  <path d="M100 0v600M340 0v600M620 0v600M890 0v600M1080 0v600" stroke="#d9e4ef" stroke-width="10" />
  <path d="M140 510c140-180 320-120 430-280 66-96 138-124 258-120 96 2 156 18 250 74" fill="none" stroke="#0b7b6b" stroke-width="16" stroke-linecap="round" />
  <circle cx="640" cy="260" r="32" fill="#1557a0" />
  <circle cx="640" cy="260" r="14" fill="#ffffff" />
  <rect x="500" y="305" width="280" height="92" rx="18" fill="#ffffff" />
  <text x="640" y="352" text-anchor="middle" fill="#0a2e52" font-family="Arial, Helvetica, sans-serif" font-size="30" font-weight="700">
    Care Well Clinic
  </text>
</svg>
